<svg xmlns="http://www.w3.org/2000/svg" width="48" height="48" viewBox="0 0 48 48" fill="none">
  <rect width="48" height="48" rx="8" fill="#9061F9"/>
  <path d="M24 9L26 13.5L30 15L26 16.5L24 21L22 16.5L18 15L22 13.5L24 9Z" fill="white"/>
  <path d="M33 18L35 22.5L39 24L35 25.5L33 30L31 25.5L27 24L31 22.5L33 18Z" fill="white"/>
  <path d="M15 18L17 22.5L21 24L17 25.5L15 30L13 25.5L9 24L13 22.5L15 18Z" fill="white"/>
  <path d="M13.5 31.5L34.5 10.5" stroke="white" stroke-width="2" stroke-linecap="round"/>
  <path d="M13.5 31.5L18.5 36.5" stroke="white" stroke-width="2" stroke-linecap="round"/>
</svg> 