<svg xmlns="http://www.w3.org/2000/svg" width="16" height="16" viewBox="0 0 16 16" fill="none">
  <rect width="16" height="16" rx="4" fill="#9061F9"/>
  <path d="M8 3L8.6 4.4L10 5L8.6 5.6L8 7L7.4 5.6L6 5L7.4 4.4L8 3Z" fill="white"/>
  <path d="M11 6L11.6 7.4L13 8L11.6 8.6L11 10L10.4 8.6L9 8L10.4 7.4L11 6Z" fill="white"/>
  <path d="M5 6L5.6 7.4L7 8L5.6 8.6L5 10L4.4 8.6L3 8L4.4 7.4L5 6Z" fill="white"/>
  <path d="M4.5 10.5L11.5 3.5" stroke="white" stroke-linecap="round"/>
  <path d="M4.5 10.5L6.5 12.5" stroke="white" stroke-linecap="round"/>
</svg> 